{"asset":{"version":"2.0","generator":"THREE.GLTFExporter"},"scenes":[{"nodes":[0],"name":"AuxScene"}],"scene":0,"nodes":[{"name":"unnamed_mesh1","mesh":0}],"bufferViews":[{"buffer":0,"byteOffset":0,"byteLength":17352,"target":34962,"byteStride":12},{"buffer":0,"byteOffset":17352,"byteLength":17352,"target":34962,"byteStride":12},{"buffer":0,"byteOffset":34704,"byteLength":17352,"target":34962,"byteStride":12}],"buffers":[{"byteLength":52056,"uri":"data:application/octet-stream;base64,"}],"accessors":[{"bufferView":0,"componentType":5126,"count":1446,"max":[10,23,10],"min":[-10,0,0],"type":"VEC3"},{"bufferView":1,"componentType":5126,"count":1446,"max":[1,1,1],"min":[-1,-1,-1],"type":"VEC3"},{"bufferView":2,"componentType":5126,"count":1446,"max":[0.9686274528503418,0.9490196108818054,0.9450980424880981],"min":[0.3450980484485626,0.19607843458652496,0.18039216101169586],"type":"VEC3"}],"materials":[{"pbrMetallicRoughness":{"metallicFactor":0.5,"roughnessFactor":0.5,"baseColorTexture":{"index":0}}}],"textures":[{"sampler":0,"source":0}],"samplers":[{"magFilter":9728,"minFilter":9728,"wrapS":33071,"wrapT":33071}],"images":[{"mimeType":"image/png","uri":"data:image/png;base64,"}],"meshes":[{"primitives":[{"mode":4,"attributes":{"POSITION":0,"NORMAL":1,"COLOR_0":2},"material":0}]}]}